# xmcd CD database file
#
# Track frame offsets:
#	150
#	9382
#	28182
#	55918
#	86444
#	105565
#	132422
#	150791
#	176517
#	193507
#	215431
#	231113
#	244211
#	256548
#	268352
#	278896
#
# Disc length: 4008 seconds
#
# Revision: 1
# Processed by: cddbd v1.5.2PL0 Copyright (c) Steve Scherf et al.
# Submitted via: CDex 1.70beta2
#
DISCID=d20fa610
DTITLE=Various Artist - Best Of Chillout CD4
DYEAR=2004
DGENRE=New Age
TTITLE0=01-Shelia Chandra_Shehnai Song
TTITLE1=02-Harold Budd and Brian Eno_The Plateaux Of Mirror
TTITLE2=03-The Penguin Cafe Orchestra_Wildlife
TTITLE3=04-Japan_Nightporter
TTITLE4=05-China Crisis_Here Comes a Raincloud
TTITLE5=06-Talk Talk_I Believe In You
TTITLE6=07-Dubstar_Stars
TTITLE7=08-Adam F_F Jam
TTITLE8=09-Nusrat Fateh Ali Khan_Fault Lines
TTITLE9=10-Matt Molloy_A Fig For A Kiss - Poll Ha'penny - The Merry Sisters
TTITLE10=11-Micheal O Suilleabhain_Woodbrook
TTITLE11=12-Jocelyn Pook_Blow The Wind - Pie Jesu
TTITLE12=13-The Mediaeval Baebes_Salva Nos
TTITLE13=14-Adiemus_Hymn
TTITLE14=15-St. Dominic's Priory Choir_Alleluia
TTITLE15=16-Mazzy Star_Fade Into You
EXTD=YEAR: 2004
EXTT0=
EXTT1=
EXTT2=
EXTT3=
EXTT4=
EXTT5=
EXTT6=
EXTT7=
EXTT8=
EXTT9=
EXTT10=
EXTT11=
EXTT12=
EXTT13=
EXTT14=
EXTT15=
PLAYORDER=
